<svg xmlns="http://www.w3.org/2000/svg" xmlns:xlink="http://www.w3.org/1999/xlink" width="500" zoomAndPan="magnify" viewBox="0 0 375 374.999991" height="500" preserveAspectRatio="xMidYMid meet" version="1.0"><defs><clipPath id="5a1075fd50"><path d="M 33.675781 40.242188 L 346 40.242188 L 346 286.242188 L 33.675781 286.242188 Z M 33.675781 40.242188 " clip-rule="nonzero"/></clipPath><clipPath id="01411ec118"><path d="M 17.828125 34.371094 L 91.449219 34.371094 L 91.449219 294.605469 L 17.828125 294.605469 Z M 17.828125 34.371094 " clip-rule="nonzero"/></clipPath><clipPath id="253d1eb37c"><path d="M 42 174 L 157 174 L 157 302 L 42 302 Z M 42 174 " clip-rule="nonzero"/></clipPath><clipPath id="1394a3659b"><path d="M 101.613281 174.996094 L 156.042969 210.621094 L 96.585938 301.464844 L 42.15625 265.839844 Z M 101.613281 174.996094 " clip-rule="nonzero"/></clipPath><clipPath id="8be385882a"><path d="M 19.445312 40.242188 L 193.445312 40.242188 L 193.445312 340.992188 L 19.445312 340.992188 Z M 19.445312 40.242188 " clip-rule="nonzero"/></clipPath></defs><g clip-path="url(#5a1075fd50)"><path fill="#2d2e32" d="M 156.574219 40.59375 C 194.441406 40.59375 232.324219 40.59375 270.191406 40.59375 C 272.265625 40.574219 274.339844 40.644531 276.40625 40.800781 C 278.476562 40.957031 280.535156 41.195312 282.585938 41.523438 C 284.632812 41.851562 286.667969 42.261719 288.679688 42.757812 C 290.695312 43.253906 292.6875 43.832031 294.652344 44.496094 C 296.621094 45.160156 298.554688 45.902344 300.460938 46.726562 C 302.363281 47.550781 304.230469 48.449219 306.058594 49.429688 C 307.890625 50.410156 309.675781 51.464844 311.417969 52.59375 C 313.15625 53.71875 314.847656 54.917969 316.492188 56.1875 C 318.132812 57.457031 319.71875 58.792969 321.246094 60.195312 C 322.777344 61.597656 324.246094 63.058594 325.65625 64.582031 C 327.0625 66.109375 328.40625 67.6875 329.679688 69.324219 C 330.957031 70.960938 332.164062 72.648438 333.300781 74.382812 C 334.433594 76.121094 335.496094 77.902344 336.484375 79.726562 C 337.472656 81.550781 338.378906 83.414062 339.210938 85.316406 C 340.042969 87.214844 340.796875 89.148438 341.464844 91.113281 C 342.136719 93.074219 342.722656 95.0625 343.230469 97.078125 C 343.878906 99.507812 344.398438 101.964844 344.785156 104.449219 C 345.171875 106.9375 345.425781 109.433594 345.546875 111.949219 C 345.667969 114.460938 345.65625 116.972656 345.511719 119.484375 C 345.363281 121.996094 345.082031 124.492188 344.671875 126.972656 C 344.257812 129.453125 343.714844 131.90625 343.039062 134.332031 C 342.363281 136.753906 341.5625 139.132812 340.632812 141.472656 C 339.707031 143.808594 338.65625 146.09375 337.484375 148.316406 C 336.3125 150.542969 335.023438 152.703125 333.621094 154.789062 C 333.128906 155.382812 332.75 156.042969 332.480469 156.765625 C 332.214844 157.488281 332.074219 158.234375 332.058594 159.007812 C 332.046875 159.777344 332.160156 160.53125 332.40625 161.261719 C 332.648438 161.996094 333.003906 162.664062 333.476562 163.273438 C 357.179688 204.289062 344.640625 252.8125 304.53125 275.609375 C 299.082031 278.757812 293.320312 281.15625 287.242188 282.804688 C 281.167969 284.449219 274.984375 285.289062 268.691406 285.324219 C 192.199219 285.554688 115.691406 285.78125 39.175781 286.011719 C 34.976562 286.011719 33.746094 285.125 33.746094 280.765625 C 34.023438 262.671875 34.023438 244.582031 33.746094 226.488281 C 33.746094 221.855469 34.671875 220.429688 39.574219 220.464844 C 70.980469 220.699219 102.390625 220.625 133.796875 220.574219 C 177.21875 220.5 220.601562 220.375 263.949219 220.191406 C 275.078125 220.191406 281.480469 214.890625 281.390625 205.898438 C 281.390625 205.070312 281.3125 204.246094 281.160156 203.429688 C 281.007812 202.609375 280.78125 201.816406 280.480469 201.039062 C 280.179688 200.265625 279.808594 199.523438 279.371094 198.816406 C 278.933594 198.109375 278.4375 197.449219 277.875 196.835938 C 277.316406 196.222656 276.707031 195.664062 276.042969 195.164062 C 275.378906 194.660156 274.675781 194.226562 273.933594 193.851562 C 273.1875 193.480469 272.417969 193.183594 271.617188 192.953125 C 270.820312 192.726562 270.007812 192.570312 269.179688 192.492188 C 267.476562 192.332031 265.757812 192.492188 264.039062 192.492188 C 189.429688 192.492188 114.816406 192.535156 40.207031 192.621094 C 35.085938 192.675781 33.855469 191.28125 33.855469 186.125 C 34.207031 169.035156 34.207031 151.925781 33.855469 134.796875 C 33.855469 130.003906 35.195312 128.902344 39.863281 128.902344 C 115.027344 128.902344 190.203125 128.773438 265.378906 128.519531 C 274.640625 128.519531 280.9375 123.273438 281.410156 115.242188 C 281.488281 114.316406 281.480469 113.394531 281.375 112.476562 C 281.273438 111.554688 281.082031 110.652344 280.800781 109.769531 C 280.519531 108.886719 280.15625 108.039062 279.707031 107.226562 C 279.261719 106.417969 278.738281 105.65625 278.136719 104.949219 C 277.539062 104.242188 276.875 103.601562 276.152344 103.023438 C 275.425781 102.449219 274.648438 101.949219 273.824219 101.527344 C 273 101.105469 272.140625 100.765625 271.25 100.515625 C 270.359375 100.261719 269.449219 100.097656 268.527344 100.027344 C 266.628906 99.917969 264.726562 99.917969 262.828125 100.027344 C 188.601562 100.027344 114.371094 100.0625 40.132812 100.132812 C 35.320312 100.132812 33.695312 99.300781 33.820312 94.054688 C 34.273438 77.828125 34.144531 61.652344 33.855469 45.496094 C 33.855469 41.480469 34.976562 40.503906 38.941406 40.503906 C 78.164062 40.648438 117.367188 40.59375 156.574219 40.59375 Z M 156.574219 40.59375 " fill-opacity="1" fill-rule="nonzero"/></g><g clip-path="url(#01411ec118)"><path fill="#ffffff" d="M 17.828125 34.371094 L 91.449219 34.371094 L 91.449219 294.632812 L 17.828125 294.632812 Z M 17.828125 34.371094 " fill-opacity="1" fill-rule="nonzero"/></g><g clip-path="url(#253d1eb37c)"><g clip-path="url(#1394a3659b)"><path fill="#ffffff" d="M 101.613281 174.996094 L 156.042969 210.621094 L 96.625 301.410156 L 42.195312 265.785156 Z M 101.613281 174.996094 " fill-opacity="1" fill-rule="nonzero"/></g></g><g clip-path="url(#8be385882a)"><path fill="#ffc857" d="M 71.078125 40.25 L 182.902344 40.25 L 135.585938 128.425781 L 193.652344 128.425781 L 53.152344 340.609375 L 90.429688 184.332031 L 19.460938 184.332031 L 71.078125 40.25 " fill-opacity="1" fill-rule="nonzero"/></g></svg>