<svg xmlns="http://www.w3.org/2000/svg" xmlns:xlink="http://www.w3.org/1999/xlink" width="500" zoomAndPan="magnify" viewBox="0 0 375 374.999991" height="500" preserveAspectRatio="xMidYMid meet" version="1.0"><defs><clipPath id="8a5522c8cc"><path d="M 57.558594 72 L 334 72 L 334 289.449219 L 57.558594 289.449219 Z M 57.558594 72 " clip-rule="nonzero"/></clipPath><clipPath id="5d64ff6b24"><path d="M 43.546875 66.757812 L 108.632812 66.757812 L 108.632812 296.816406 L 43.546875 296.816406 Z M 43.546875 66.757812 " clip-rule="nonzero"/></clipPath><clipPath id="846dd9a867"><path d="M 65 124 L 207 124 L 207 301 L 65 301 Z M 65 124 " clip-rule="nonzero"/></clipPath><clipPath id="e2b5cf66b7"><path d="M 161.371094 124.226562 L 206.386719 153.691406 L 110.074219 300.847656 L 65.054688 271.382812 Z M 161.371094 124.226562 " clip-rule="nonzero"/></clipPath><clipPath id="edf0254de9"><path d="M 180 131 L 212 131 L 212 160 L 180 160 Z M 180 131 " clip-rule="nonzero"/></clipPath><clipPath id="b68155d557"><path d="M 190.109375 131.898438 L 211.425781 145.851562 L 202.285156 159.820312 L 180.96875 145.871094 Z M 190.109375 131.898438 " clip-rule="nonzero"/></clipPath><clipPath id="e8f8d8c165"><path d="M 44.980469 71.949219 L 198.730469 71.949219 L 198.730469 337.449219 L 44.980469 337.449219 Z M 44.980469 71.949219 " clip-rule="nonzero"/></clipPath></defs><g clip-path="url(#8a5522c8cc)"><path fill="#2d2e32" d="M 166.207031 72.257812 C 199.679688 72.257812 233.171875 72.257812 266.648438 72.257812 C 268.480469 72.242188 270.3125 72.300781 272.144531 72.4375 C 273.972656 72.574219 275.792969 72.789062 277.605469 73.078125 C 279.414062 73.367188 281.210938 73.730469 282.992188 74.167969 C 284.773438 74.609375 286.535156 75.121094 288.273438 75.707031 C 290.011719 76.292969 291.722656 76.949219 293.40625 77.675781 C 295.089844 78.40625 296.738281 79.203125 298.355469 80.066406 C 299.972656 80.933594 301.550781 81.867188 303.089844 82.863281 C 304.632812 83.859375 306.125 84.921875 307.578125 86.042969 C 309.027344 87.164062 310.429688 88.34375 311.78125 89.585938 C 313.136719 90.824219 314.433594 92.117188 315.679688 93.464844 C 316.925781 94.8125 318.109375 96.207031 319.238281 97.65625 C 320.367188 99.101562 321.433594 100.59375 322.4375 102.128906 C 323.441406 103.664062 324.378906 105.238281 325.253906 106.851562 C 326.125 108.464844 326.929688 110.109375 327.664062 111.792969 C 328.398438 113.472656 329.0625 115.179688 329.65625 116.917969 C 330.25 118.652344 330.769531 120.410156 331.214844 122.1875 C 331.789062 124.335938 332.25 126.511719 332.589844 128.707031 C 332.933594 130.90625 333.160156 133.113281 333.265625 135.335938 C 333.371094 137.558594 333.363281 139.777344 333.230469 141.996094 C 333.101562 144.21875 332.855469 146.425781 332.488281 148.617188 C 332.125 150.8125 331.644531 152.980469 331.046875 155.121094 C 330.449219 157.265625 329.742188 159.371094 328.921875 161.4375 C 328.101562 163.503906 327.171875 165.519531 326.136719 167.488281 C 325.101562 169.457031 323.960938 171.363281 322.722656 173.210938 C 322.289062 173.734375 321.949219 174.316406 321.714844 174.957031 C 321.476562 175.597656 321.351562 176.257812 321.339844 176.9375 C 321.328125 177.621094 321.429688 178.285156 321.644531 178.933594 C 321.859375 179.578125 322.175781 180.171875 322.59375 180.710938 C 343.546875 216.96875 332.464844 259.867188 297.003906 280.019531 C 292.1875 282.804688 287.09375 284.921875 281.722656 286.378906 C 276.351562 287.835938 270.882812 288.578125 265.320312 288.605469 C 197.699219 288.808594 130.0625 289.011719 62.421875 289.214844 C 58.710938 289.214844 57.621094 288.429688 57.621094 284.578125 C 57.867188 268.582031 57.867188 252.589844 57.621094 236.59375 C 57.621094 232.5 58.4375 231.238281 62.773438 231.269531 C 90.539062 231.476562 118.304688 231.414062 146.070312 231.363281 C 184.453125 231.300781 222.808594 231.1875 261.128906 231.027344 C 270.964844 231.027344 276.628906 226.34375 276.546875 218.394531 C 276.546875 217.660156 276.480469 216.929688 276.34375 216.207031 C 276.207031 215.484375 276.007812 214.78125 275.742188 214.097656 C 275.476562 213.410156 275.148438 212.757812 274.761719 212.132812 C 274.375 211.507812 273.9375 210.921875 273.441406 210.378906 C 272.945312 209.835938 272.40625 209.34375 271.820312 208.902344 C 271.234375 208.457031 270.613281 208.070312 269.953125 207.742188 C 269.296875 207.414062 268.617188 207.148438 267.910156 206.949219 C 267.203125 206.746094 266.484375 206.609375 265.753906 206.542969 C 264.25 206.398438 262.730469 206.542969 261.210938 206.542969 C 195.25 206.542969 129.292969 206.578125 63.332031 206.652344 C 58.804688 206.703125 57.71875 205.46875 57.71875 200.910156 C 58.027344 185.804688 58.027344 170.679688 57.71875 155.535156 C 57.71875 151.296875 58.902344 150.324219 63.027344 150.324219 C 129.476562 150.324219 195.933594 150.210938 262.394531 149.988281 C 270.582031 149.988281 276.148438 145.347656 276.5625 138.246094 C 276.636719 137.429688 276.625 136.617188 276.535156 135.800781 C 276.445312 134.988281 276.277344 134.191406 276.027344 133.410156 C 275.78125 132.628906 275.457031 131.878906 275.0625 131.164062 C 274.664062 130.445312 274.203125 129.773438 273.671875 129.148438 C 273.144531 128.523438 272.558594 127.957031 271.914062 127.449219 C 271.273438 126.9375 270.589844 126.496094 269.859375 126.125 C 269.128906 125.75 268.371094 125.453125 267.582031 125.226562 C 266.796875 125.003906 265.992188 124.859375 265.175781 124.796875 C 263.496094 124.699219 261.816406 124.699219 260.136719 124.796875 C 194.519531 124.796875 128.898438 124.828125 63.269531 124.890625 C 59.011719 124.890625 57.574219 124.15625 57.6875 119.519531 C 58.085938 105.171875 57.972656 90.875 57.71875 76.589844 C 57.71875 73.039062 58.710938 72.175781 62.210938 72.175781 C 96.886719 72.304688 131.546875 72.257812 166.207031 72.257812 Z M 166.207031 72.257812 " fill-opacity="1" fill-rule="nonzero"/></g><g clip-path="url(#5d64ff6b24)"><path fill="#ffffff" d="M 43.546875 66.757812 L 108.632812 66.757812 L 108.632812 296.835938 L 43.546875 296.835938 Z M 43.546875 66.757812 " fill-opacity="1" fill-rule="nonzero"/></g><g clip-path="url(#846dd9a867)"><g clip-path="url(#e2b5cf66b7)"><path fill="#ffffff" d="M 161.371094 124.226562 L 206.386719 153.691406 L 110.054688 300.875 L 65.035156 271.414062 Z M 161.371094 124.226562 " fill-opacity="1" fill-rule="nonzero"/></g></g><g clip-path="url(#edf0254de9)"><g clip-path="url(#b68155d557)"><path fill="#ffffff" d="M 190.109375 131.898438 L 211.449219 145.863281 L 202.304688 159.835938 L 180.96875 145.871094 Z M 190.109375 131.898438 " fill-opacity="1" fill-rule="nonzero"/></g></g><g clip-path="url(#e8f8d8c165)"><path fill="#fdd54f" d="M 90.621094 71.953125 L 189.484375 71.953125 L 147.648438 149.90625 L 198.988281 149.90625 L 74.777344 337.488281 L 107.730469 199.328125 L 44.988281 199.328125 L 90.621094 71.953125 " fill-opacity="1" fill-rule="nonzero"/></g></svg>